<svg xmlns="http://www.w3.org/2000/svg" xmlns:xlink="http://www.w3.org/1999/xlink" viewBox="0 0 145.29 401.26"><defs><linearGradient id="e8c6d56c-f89d-47c8-86a7-c3286cd9c823" x1="1933.34" y1="-760.7" x2="2070.33" y2="-760.7" gradientTransform="matrix(0.92, -0.39, 0.39, 0.92, -1472.82, 1555.05)" gradientUnits="userSpaceOnUse"><stop offset="0" stop-color="#d5e0f8"/><stop offset="1" stop-color="#a175f9"/></linearGradient><linearGradient id="f1ebe526-61bc-41dc-bb95-af9ffb368aba" x1="49.46" y1="72.65" x2="95.83" y2="72.65" gradientUnits="userSpaceOnUse"><stop offset="0" stop-color="#e5ccf4"/><stop offset="1" stop-color="#e3bbff"/></linearGradient><linearGradient id="ef003ab3-a336-438e-8834-60789df1be50" x1="1199.81" y1="-577.89" x2="1345.19" y2="-577.89" gradientTransform="matrix(0.95, -0.26, 0.26, 0.95, -981.88, 1036.7)" gradientUnits="userSpaceOnUse"><stop offset="0" stop-color="#c4bcf8"/><stop offset="1" stop-color="#b299f9"/></linearGradient><linearGradient id="ade4cd5e-7fa4-4007-931b-acfbf58d37c5" x1="532.4" y1="-201.49" x2="679.37" y2="-201.49" gradientTransform="translate(-490.94 518.35) rotate(-7.62) scale(0.98)" gradientUnits="userSpaceOnUse"><stop offset="0" stop-color="#b299f9"/><stop offset="1" stop-color="#c4bcf8"/></linearGradient><linearGradient id="af3e847f-8b47-4395-8cef-3e4e0176da01" y1="328.61" x2="145.29" y2="328.61" gradientUnits="userSpaceOnUse"><stop offset="0" stop-color="#a175f9"/><stop offset="1" stop-color="#d5e0f8"/></linearGradient><linearGradient id="ac3fa48f-e36e-492b-b91c-87223468a604" x1="54.1" y1="328.61" x2="91.2" y2="328.61" xlink:href="#f1ebe526-61bc-41dc-bb95-af9ffb368aba"/></defs><g id="e5b84265-bda8-4e7b-9db7-5442d9b54056" data-name="Layer 2"><g id="ed456579-5dff-4579-83ce-744c540e6eaf" data-name="Layer 1"><path d="M57.66,10.48h0a16.25,16.25,0,0,1,28.89-.25h0A16.25,16.25,0,0,0,106,18.09h0a16.25,16.25,0,0,1,20.6,20.25h0a16.24,16.24,0,0,0,8.21,19.32h0a16.25,16.25,0,0,1,.25,28.89h0A16.24,16.24,0,0,0,127.2,106h0A16.24,16.24,0,0,1,107,126.61h0a16.26,16.26,0,0,0-19.33,8.21h0a16.24,16.24,0,0,1-28.88.25h0a16.26,16.26,0,0,0-19.47-7.87h0A16.24,16.24,0,0,1,18.68,107h0a16.26,16.26,0,0,0-8.2-19.33h0a16.24,16.24,0,0,1-.25-28.88h0a16.26,16.26,0,0,0,7.86-19.47h0a16.25,16.25,0,0,1,20.25-20.6h0A16.24,16.24,0,0,0,57.66,10.48Z" style="fill:#f6f0fc;stroke-miterlimit:10;stroke-width:3.09136003783565px;stroke:url(#e8c6d56c-f89d-47c8-86a7-c3286cd9c823)"/><path d="M92.71,74.17Q89.59,71.44,84,71a15.74,15.74,0,0,0,3.46-1.11,9.48,9.48,0,0,0,2.82-2A8.57,8.57,0,0,0,92.12,65a10,10,0,0,0,.68-3.84,13.13,13.13,0,0,0-1.17-6,8.4,8.4,0,0,0-3.28-3.47,14,14,0,0,0-5.1-1.6c-.63-.09-1.28-.15-2-.21V42.26H75.74v7.42H69.56V42.26H64v7.42H49.46v5.51Q55,55.19,55,58V87.71q0,2.83-5.5,2.84v5.07H64V103h5.57V95.62h6.18V103H81.3v-7.5a36.05,36.05,0,0,0,4.83-.59,13.8,13.8,0,0,0,5.5-2.26,9.19,9.19,0,0,0,3.18-4.2,18.14,18.14,0,0,0,1-6.52Q95.83,76.89,92.71,74.17ZM73.88,56.73q6.06,0,6.06,5.32,0,3.53-1.33,5.19c-.88,1.12-2.46,1.67-4.73,1.67H67.52V56.73Zm8.5,27.73a5.84,5.84,0,0,1-1.17,2.41A5.41,5.41,0,0,1,79,88.45a9.45,9.45,0,0,1-3.49.56h-8V74.17h8c2.6,0,4.45.61,5.57,1.82a7.79,7.79,0,0,1,1.67,5.41A12.73,12.73,0,0,1,82.38,84.46Z" style="fill:url(#f1ebe526-61bc-41dc-bb95-af9ffb368aba)"/><path d="M81.91,92.65h0A25.63,25.63,0,0,0,102.05,99h0c12-1.6,23.29,8.27,23.33,19.34h0c.14,6.76,3.9,14.17,9.75,18.72h0c9.57,7.23,10.62,22.13,2.83,30.17h0a25.66,25.66,0,0,0-6.34,20.14h0c1.59,12-8.28,23.29-19.34,23.33h0c-6.76.14-14.18,3.9-18.72,9.75h0c-7.23,9.57-22.14,10.63-30.18,2.83h0a25.65,25.65,0,0,0-20.14-6.34h0c-12,1.6-23.29-8.28-23.33-19.34h0c-.14-6.76-3.9-14.17-9.75-18.72h0C.6,171.65-.46,156.74,7.33,148.7h0a25.66,25.66,0,0,0,6.35-20.14h0c-1.6-12,8.27-23.28,19.33-23.33h0c6.77-.14,14.18-3.9,18.72-9.75h0C59,85.92,73.87,84.86,81.91,92.65Z" style="fill:#f3ebfa;stroke-miterlimit:10;stroke-width:3.09136003783565px;stroke:url(#ef003ab3-a336-438e-8834-60789df1be50)"/><path d="M77.28,175.08h0a81.76,81.76,0,0,0,20.81,4.83h0c11.51.94,22.06,8.91,26.06,18.43h0a79.94,79.94,0,0,0,11.3,18.11h0a32.17,32.17,0,0,1,5.4,31.47h0A81.43,81.43,0,0,0,136,268.73h0c-.94,11.52-8.92,22.07-18.43,26.07h0a79.89,79.89,0,0,0-18.11,11.29h0A32.22,32.22,0,0,1,68,311.5h0a81.76,81.76,0,0,0-20.81-4.83h0c-11.51-.94-22.06-8.91-26.06-18.43h0A79.89,79.89,0,0,0,9.85,270.13h0a32.15,32.15,0,0,1-5.41-31.47h0a81.43,81.43,0,0,0,4.82-20.81h0c1-11.52,8.92-22.07,18.43-26.07h0a80.17,80.17,0,0,0,18.12-11.29h0A32.2,32.2,0,0,1,77.28,175.08Z" style="fill:#f1e7f9;stroke-miterlimit:10;stroke-width:3.09136003783565px;stroke:url(#ade4cd5e-7fa4-4007-931b-acfbf58d37c5)"/><circle cx="72.65" cy="328.61" r="71.1" style="fill:#eee2f7;stroke-miterlimit:10;stroke-width:3.09136003783565px;stroke:url(#af3e847f-8b47-4395-8cef-3e4e0176da01)"/><path d="M68.85,332.34H54.1v-7.53H68.85V310.06h7.52v14.75H91.2v7.53H76.37v14.82H68.85Z" style="fill:url(#ac3fa48f-e36e-492b-b91c-87223468a604)"/></g></g></svg>