<svg xmlns="http://www.w3.org/2000/svg" viewBox="0 0 1582.25 995.27"><g id="f272ff65-b0a8-4dc3-90bf-1f0f4dc7a2e7" data-name="Layer 2"><g id="a314926a-bfcf-422c-861f-4e7a42a2ec04" data-name="Layer 1"><path d="M1187.75,993c-30.66,0-61.38-8.82-89.44-26-45.81-28.11-79.5-76-90.12-128.17-19.7-96.63.63-189.54,60.42-276.13C1116,494,1180.12,438.83,1242.12,385.46l.32-.28c8-6.91,1-19.95-9.16-17-42.6,12.29-86.84,30.42-135.71,55.47C988.3,479.64,888.62,550,783.08,624.48c-67,47.28-136.28,96.18-208.05,140.89-69.3,43.17-131.93,72-191.46,88.22-86.31,23.46-166.44,20.1-238.18-10C89,819.94,45.71,780.36,23.51,732.15c-71.83-156,57.93-338,99.41-390,62.5-78.41,143.57-148.09,255.14-219.28,63.29-40.38,120.36-69.53,174.46-89.1,72.37-26.18,142.66-36.13,209-29.55a87.72,87.72,0,0,1-17.31,174.58c-75.35-7.47-161.7,21.75-271.75,92C377.65,331.22,310.19,388.65,260.1,451.5,220,501.84,154,596.49,198,661.14c22,32.3,61.43,40.59,98.19,36.86,69.46-7.06,128.32-45.57,186.05-81.53C549.76,574.42,617,527,681.92,481.15c105.87-74.72,215.34-152,335.62-213.64,86.3-44.23,162.71-71.24,240.48-85l4.81-.86c23.15-4.14,61.91-11.07,100.49-9.44,93.9,4,129.48,56.26,142.33,87.06,9.79,23.47,12.11,49.71,6.88,78-6.73,36.35-28.19,60.07-38.5,71.47-35.07,38.75-77,74.81-117.45,109.67-52.17,44.92-109,91-147.06,149.18-15.21,23.28-62.63,127.91-20.21,146.61A23.06,23.06,0,0,0,1200.5,816c104.94-8.64,126.66,144.52,29.57,171.29A159.21,159.21,0,0,1,1187.75,993Z" style="fill:none;stroke:#e5ccf4;stroke-linejoin:round;stroke-width:4.49060721285601px"/><rect x="275.37" y="47.2" width="29.94" height="7.48" style="fill:#e3bbff"/><circle cx="290.34" cy="84.62" r="14.97" style="fill:#e3bbff;opacity:0.5"/><rect x="230.47" y="47.2" width="29.94" height="29.94" style="fill:#e3bbff"/><rect x="230.47" y="92.11" width="29.94" height="14.97" style="fill:#e3bbff"/><path d="M260.4,137a15,15,0,0,0-29.93,0Z" style="fill:#e3bbff"/><circle cx="1567.28" cy="50.94" r="14.97" style="fill:#e3bbff"/><rect x="727.69" y="685.44" width="29.94" height="7.48" style="fill:#e3bbff"/><circle cx="742.66" cy="655.5" r="14.97" style="fill:#e3bbff"/><rect x="727.69" y="580.66" width="29.94" height="14.97" style="fill:#e3bbff;opacity:0.5"/><path d="M757.62,625.57a15,15,0,1,0-29.93,0Z" style="fill:#e3bbff"/></g></g></svg>