<svg xmlns="http://www.w3.org/2000/svg" xmlns:xlink="http://www.w3.org/1999/xlink" viewBox="0 0 219.34 224.81"><defs><linearGradient id="bb7d156c-db0b-4222-85db-9df1ab927a92" x1="144.07" y1="128.48" x2="144.07" gradientTransform="translate(4.17 -8.64) rotate(3.48)" gradientUnits="userSpaceOnUse"><stop offset="0" stop-color="#878be8"/><stop offset="0.19" stop-color="#9188ea"/><stop offset="0.52" stop-color="#ac7fee"/><stop offset="0.94" stop-color="#d870f6"/><stop offset="1" stop-color="#df6ef7"/></linearGradient></defs><g id="b88ef1c4-a61f-4291-b630-e676bf48792b" data-name="Layer 2"><g id="b71bfa99-80e5-4c69-99c3-fd8b3916ddf9" data-name="Layer 1"><path d="M164.77,164.83s-4.29-9.58-9.58-9.58H118.63a9.57,9.57,0,0,1-4.92-1.36l-16-9.58a9.48,9.48,0,0,0-4.92-1.37H62.49V208l12.45,4.85,52.85,4.26a13.23,13.23,0,0,0,7-1.37l75-37.24a13.21,13.21,0,0,0,4.89-19.39h0a13.21,13.21,0,0,0-16.35-4.44l-36.89,17" style="fill:#fffdfe"/><rect x="4.35" y="138.1" width="58.14" height="82.36" rx="15.31" style="fill:#382c73;stroke:#382c73;stroke-linejoin:round;stroke-width:8.70047677897363px"/><path d="M62.49,142.94H85a37.78,37.78,0,0,1,19.45,5.39l7.92,4.75a15.26,15.26,0,0,0,7.84,2.17h35a9.58,9.58,0,0,1,9.58,9.58h0a9.57,9.57,0,0,1-9.58,9.57H113.63" style="fill:#fffdfe;stroke:#382c73;stroke-linecap:round;stroke-linejoin:round;stroke-width:4.49060721285601px"/><path d="M62.49,208l7.61,3a35.26,35.26,0,0,0,10,2.3l44.44,3.59a24.9,24.9,0,0,0,13.09-2.53c21-10.47,72.16-35.82,72.16-35.82a13.21,13.21,0,0,0,4.89-19.39h0a13.21,13.21,0,0,0-16.35-4.44l-36.89,17" style="fill:none;stroke:#382c73;stroke-linejoin:round;stroke-width:4.49060721285601px"/><ellipse cx="144.07" cy="64.24" rx="50.1" ry="64.28" transform="translate(-3.64 8.87) rotate(-3.48)" style="fill:url(#bb7d156c-db0b-4222-85db-9df1ab927a92)"/><ellipse cx="138.02" cy="64.61" rx="50.1" ry="64.28" transform="translate(-3.67 8.51) rotate(-3.48)" style="fill:#382c73"/><path d="M155.75,70.27c-2.64-2.74-7-5.36-13.24-7.86l-1.4-.56,0-14.79a61.27,61.27,0,0,1,13,5l3.79-6.62A54.88,54.88,0,0,0,141.09,39V30.84l-10.15-1.6,0,8.37a26.65,26.65,0,0,0-11.87,1.81,10.34,10.34,0,0,0-6.63,10.3c0,7,4.72,12.39,14,16.26.72.33,1.9.81,3.53,1.44.34.14.75.28,1.1.42l0,16.23A51.52,51.52,0,0,1,125,82.3a63,63,0,0,1-9.6-4.38l-3,7.38a58,58,0,0,0,18.75,6.81l0,7.55,10,1.33V93.21a27.36,27.36,0,0,0,11.77-2,10.79,10.79,0,0,0,6.78-10.56A14.24,14.24,0,0,0,155.75,70.27Zm-30.09-19q.18-3.6,3.06-4.73A10,10,0,0,1,131,46l0,11.72C127.49,56.3,125.67,54.14,125.66,51.26ZM144.05,84.1a9.28,9.28,0,0,1-2.92.84l0-13.17c4,1.91,6,4.25,6,7A5.5,5.5,0,0,1,144.05,84.1Z" style="fill:#45d690"/></g></g></svg>