<svg xmlns="http://www.w3.org/2000/svg" xmlns:xlink="http://www.w3.org/1999/xlink" viewBox="0 0 354.44 371.8"><defs><clipPath id="bcd7f2c3-4350-4905-b584-5c6dbff51090" transform="translate(1.3)"><path d="M338.54,355.56H21.45a7.68,7.68,0,0,1-7.68-7.68V.22H346.22V347.88A7.68,7.68,0,0,1,338.54,355.56Z" style="fill:none"/></clipPath></defs><g id="af7e706e-467b-4201-bae1-180bed08568d" data-name="Layer 2"><g id="a4d3a48e-4b22-4045-bf7a-31a773752184" data-name="Layer 1"><rect x="1.3" y="16.16" width="332.45" height="355.64" rx="7.73" style="fill:#b7c2c6"/><rect x="15.08" width="332.45" height="355.64" rx="7.73" style="fill:#fcfcfc"/><g style="clip-path:url(#bcd7f2c3-4350-4905-b584-5c6dbff51090)"><path d="M347.46,286.05H2L.82,211.15a17.51,17.51,0,0,1,1.67-14.32c1-1.54,2.27-2.8,3.18-4.44s4-3.35,4.95-5.07c2.2-4,4.89-6.58,10.42-2.13,1.52,1.22,7.05-.81,8.81-1.3.89-.26,2.08-11.5,2.89-12,2-1.38,4.29-7.45,6-5.46A68.94,68.94,0,0,1,56.2,161c7.65-1.27,15.58,1.55,23.09,3.78a39.53,39.53,0,0,0,8.87-6.31c2.4-2.25,4.64-4.87,7.38-6.41s5.88-10.06,8.19-7.65c.89.94,3.42-4.55,4.51-4a4.37,4.37,0,0,0,3.08-.12l14.44-4.1c.89-.26,1.31-3.64,2-4.35s1.65,1.3,2.3.49c2.1-2.6,10.48-9.54,13.25-8.28,3.69,1.68,8-7.17,11.88-7.34,5.1-.23,10-2.38,14.65-5.12a72.08,72.08,0,0,0,10.74-7.85c3.6-3.18,7-6.81,11.12-8.82a16.58,16.58,0,0,1,17.12,1.6c2.44,1.76,4.6,4.17,7.18,5.58s5.91,1.58,7.93-.9c.74-.9,1.24-2.08,2-2.91,1.23-1.33,2.94-1.61,4.54-1.84l19.92-2.83c4-.57,8,3.81,12,4.62a3.09,3.09,0,0,0,2.1-.1c.78-.42,1.24-1.4,1.83-2.17a6.47,6.47,0,0,1,3.25-2.27c2.24-.73,4.6-.4,6.9-.07l1.49.22c3.59.52,7.21,1,10.79.5a37.14,37.14,0,0,0,4.27-1l4-1.08c3.6-1,7.23,9.33,10.92,9.33a3.12,3.12,0,0,0,2-.48,26.37,26.37,0,0,0,3-3c1.75-2,3.44-.31,5.7.48,4.18,1.47,9.09-2.18,12.8.66a8.92,8.92,0,0,0,2.42,1.79c1.1.33,2.2-.32,3.25-.84a15.88,15.88,0,0,1,13.52-.37" transform="translate(1.3)" style="fill:#f6f0fc;stroke:#daf1f7;stroke-linejoin:round;stroke-width:2.6060953858122px"/><path d="M351.11,99.87a15.92,15.92,0,0,0-13.52.37c-1,.52-2.15,1.17-3.24.84a8.62,8.62,0,0,1-2.42-1.79c-3.72-2.84-8.62.81-12.8-.66-2.26-.79-4.48-2.19-6.62-1-1.19.67-.87,2.6-2.11,3.54V245.68h39.68Z" transform="translate(1.3)" style="fill:#e5ccf4"/><path d="M350.89,360.22H8.2L5.59,218.67,37.73,210,44,213.34c2.22,0,4.47,1.95,5.73,4.5a10.67,10.67,0,0,0,5.32,5.32A34.47,34.47,0,0,1,63,228.41L78.58,241a10.23,10.23,0,0,1,2.6,2.72c2.3,3.89.51,10.54,3.92,13.29a4.19,4.19,0,0,0,5.4-.31c3-2.41,4.1-6.64,5.85-10.26,2.35-4.87,5.86-8.63,8.74-13a51.61,51.61,0,0,0,5.65-11.66c2.17-6.37,3.26-13.37,6.19-19.24s8.6-10.46,13.8-8.21c2,.86,3.66,2.62,5.32,4.26A82.12,82.12,0,0,0,161,215.71c2.67,1.15,5.49,2.22,7.51,4.71,4.15.45,9.25.45,13.12-1.45a8,8,0,0,1,2.89-1.13c2.14-.12,3.82,2.15,5.76,3.31,4.9,2.93,10.59-1.67,14-7,1.29-2,2.71-4.28,4.74-4.48,1.11-.11,2.39.41,3.24-.51.64-.69.7-1.89.93-2.92a8.23,8.23,0,0,1,7.11-6.19c3-.44,6.14.22,9.16-.43a17.67,17.67,0,0,0,9.83,1.66c3.45-.35,6.78-1.76,10.22-2.22s7.24.18,9.69,3.27c1.09,1.38,2.08,3.34,3.63,3.41,1.05.05,2-.81,2.91-1.39a5.89,5.89,0,0,1,6.05-.11,7.78,7.78,0,0,0,2.53,1.29,5.92,5.92,0,0,0,2.36-.44,8.77,8.77,0,0,1,7.68,1.55c6.61,5,15.48-1.36,22.81-4.29a5.69,5.69,0,0,0,2.46-1.54c.52-.62.86-1.46,1.34-2.13a4.55,4.55,0,0,1,2.07-1.58,10.27,10.27,0,0,1,3.94-.48,45.25,45.25,0,0,0,9.8-.45c2.84-.56,5.62-1.71,8.49-1.69,5.57,0,11.61,4.28,16.32.55" transform="translate(1.3)" style="fill:#f6f0fc;stroke:#cfc5ff;stroke-linejoin:round;stroke-width:2.6060953858122px"/><path d="M313.74,243.72c2.05,0,4.47-.29,5.49-2.07a7.36,7.36,0,0,1,.95-1.72c.93-.93,2.47-.5,3.77-.65a8.22,8.22,0,0,0,2.57-.91c5.85-2.79,13.45-4.59,19.7-6.27V363.46l-32.47.3Z" transform="translate(1.3)" style="fill:#ffd9d9"/><path d="M348.93,194.18c-4.72,3.74-10.76-.52-16.33-.55-2.86,0-5.65,1.13-8.48,1.7a45.34,45.34,0,0,1-9.81.44c-1.3,0-2.79,2.59-4,3.07L310.37,361H345Z" transform="translate(1.3)" style="fill:#e5ccf4"/><path d="M351.84,194.86c-4.72,3.74-10.76-.52-16.32-.55-2.87,0-5.66,1.13-8.49,1.7a45.34,45.34,0,0,1-9.81.44,10.3,10.3,0,0,0-3.94.48,6.57,6.57,0,0,0-3,1.91" transform="translate(1.3)" style="fill:none;stroke:#a081e1;stroke-linecap:round;stroke-linejoin:round;stroke-width:2.6060953858122px"/><path d="M310.34,100.79c.81-.91,1.4-2.47,2.17-3.33,1.75-2,4.36.19,6.62,1,4.18,1.47,9.08-2.18,12.8.66a8.62,8.62,0,0,0,2.42,1.79c1.09.33,2.2-.32,3.24-.84a15.89,15.89,0,0,1,13.52-.37" transform="translate(1.3)" style="fill:none;stroke:#c3dff9;stroke-linejoin:round;stroke-width:2.6060953858122px"/></g><polyline points="79.85 53.22 97.84 35.69 100.79 45.2 122.08 24.47" style="fill:none;stroke:#e3bbff;stroke-linejoin:round;stroke-width:3.40722338496102px"/><path d="M123.08,21.24l-13.32,3a.91.91,0,0,0-.44,1.54l10.25,10a.9.9,0,0,0,1.51-.44l3.08-13A.91.91,0,0,0,123.08,21.24Z" transform="translate(1.3)" style="fill:#e3bbff"/><circle cx="52.19" cy="37.12" r="22.71" style="fill:none;stroke:#e3bbff;stroke-miterlimit:10;stroke-width:3.40722338496102px"/><path d="M61.07,39.63a11.07,11.07,0,0,1-20.36,0" transform="translate(1.3)" style="fill:none;stroke:#e3bbff;stroke-miterlimit:10;stroke-width:3.40722338496102px"/><ellipse cx="47.4" cy="33.63" rx="2.27" ry="3.06" style="fill:#e3bbff"/><ellipse cx="56.99" cy="33.63" rx="2.27" ry="3.06" style="fill:#e3bbff"/></g></g></svg>