<?xml version="1.0" encoding="UTF-8"?>
<svg width="50px" height="50px" viewBox="0 0 50 50" version="1.1" xmlns="http://www.w3.org/2000/svg" xmlns:xlink="http://www.w3.org/1999/xlink">
    <title>facebook_icon</title>
    <defs>
        <polygon id="path-zf4wrt0sbb-1" points="0 0.551724138 49.4417442 0.551724138 49.4417442 49.1281034 0 49.1281034"></polygon>
    </defs>
    <g id="Page-1" stroke="none" stroke-width="1" fill="none" fill-rule="evenodd">
        <g id="5" transform="translate(-710.000000, -542.000000)">
            <rect id="Rectangle" fill="#382C73" x="0" y="0" width="1920" height="693"></rect>
            <g id="Social-icon" transform="translate(620.000000, 542.000000)">
                <g id="Facebook" transform="translate(90.000000, 0.000000)">
                    <g id="Group-3" transform="translate(0.000000, 0.022989)">
                        <mask id="mask-zf4wrt0sbb-2" fill="white">
                            <use xlink:href="#path-zf4wrt0sbb-1"></use>
                        </mask>
                        <g id="Clip-2"></g>
                        <path d="M49.4417442,24.9884483 C49.4417442,11.4924713 38.3737209,0.551666667 24.720814,0.551666667 C11.0684884,0.551666667 -0.00011627907,11.4924713 -0.00011627907,24.9884483 C-0.00011627907,37.1855747 9.04,47.2947701 20.8580233,49.1281034 L20.8580233,32.0522414 L14.5818605,32.0522414 L14.5818605,24.9884483 L20.8580233,24.9884483 L20.8580233,19.6051149 C20.8580233,13.4804023 24.5493023,10.0976437 30.195814,10.0976437 C32.9004651,10.0976437 35.7295349,10.5746552 35.7295349,10.5746552 L35.7295349,16.5884483 L32.612093,16.5884483 C29.5411628,16.5884483 28.5836047,18.4723563 28.5836047,20.4045402 L28.5836047,24.9884483 L35.44,24.9884483 L34.3434884,32.0522414 L28.5836047,32.0522414 L28.5836047,49.1281034 C40.4016279,47.2947701 49.4417442,37.1855747 49.4417442,24.9884483" id="Fill-1" fill="#1877F2" mask="url(#mask-zf4wrt0sbb-2)"></path>
                    </g>
                    <path d="M34.3436047,32.0752299 L35.4395349,25.0114368 L28.5837209,25.0114368 L28.5837209,20.4275287 C28.5837209,18.4953448 29.5412791,16.6114368 32.6122093,16.6114368 L35.7296512,16.6114368 L35.7296512,10.5976437 C35.7296512,10.5976437 32.9005814,10.1206322 30.1959302,10.1206322 C24.5488372,10.1206322 20.8581395,13.5033908 20.8581395,19.6281034 L20.8581395,25.0114368 L14.5813953,25.0114368 L14.5813953,32.0752299 L20.8581395,32.0752299 L20.8581395,49.151092 C22.1168605,49.3464943 23.4069767,49.4482184 24.7209302,49.4482184 C26.0348837,49.4482184 27.325,49.3464943 28.5837209,49.151092 L28.5837209,32.0752299 L34.3436047,32.0752299 Z" id="Fill-4" fill="#FFFFFF"></path>
                </g>
            </g>
        </g>
    </g>
</svg>