<?xml version="1.0" encoding="UTF-8"?>
<svg width="50px" height="50px" viewBox="0 0 50 50" version="1.1" xmlns="http://www.w3.org/2000/svg" xmlns:xlink="http://www.w3.org/1999/xlink">
    <title>github_icon</title>
    <defs>
        <polygon id="path-nn9gz6q8d6-1" points="0 0 50 0 50 50 0 50"></polygon>
    </defs>
    <g id="Page-1" stroke="none" stroke-width="1" fill="none" fill-rule="evenodd">
        <g id="5" transform="translate(-1250.000000, -542.000000)">
            <rect id="Rectangle" fill="#382C73" x="0" y="0" width="1920" height="693"></rect>
            <g id="Social-icon" transform="translate(620.000000, 542.000000)">
                <g id="Github" transform="translate(630.000000, 0.000000)">
                    <mask id="mask-nn9gz6q8d6-2" fill="white">
                        <use xlink:href="#path-nn9gz6q8d6-1"></use>
                    </mask>
                    <g id="Clip-2"></g>
                    <path d="M24.9984124,-5.88235289e-05 C11.19357,-5.88235289e-05 -0.000117647059,11.1975882 -0.000117647059,25.0128824 C-0.000117647059,36.0622941 7.16247834,45.437 17.0973318,48.7446471 C18.3473465,48.9740588 18.8041957,48.2017059 18.8041957,47.5387647 C18.8041957,46.9452353 18.7824409,45.3722941 18.7700937,43.2852353 C11.8162254,44.7964118 10.3486635,39.9322941 10.3486635,39.9322941 C9.21153818,37.0428824 7.57287827,36.2734706 7.57287827,36.2734706 C5.30333136,34.7217059 7.7445642,34.7534706 7.7445642,34.7534706 C10.2534131,34.9299412 11.5739836,37.3305294 11.5739836,37.3305294 C13.8041369,41.1528824 17.4254165,40.0493529 18.850057,39.4093529 C19.0770117,37.7928824 19.7225978,36.6905294 20.4369759,36.0652353 C14.8854055,35.4340588 9.0492597,33.2881765 9.0492597,23.7040588 C9.0492597,20.9734706 10.0235186,18.7405294 11.6227848,16.9922941 C11.3652559,16.3593529 10.5074142,13.8164118 11.8679664,10.3728824 C11.8679664,10.3728824 13.9664154,9.70052941 18.7424593,12.937 C20.7368383,12.3822941 22.8758569,12.1052353 25.0013523,12.0952353 C27.1244958,12.1052353 29.2635143,12.3822941 31.2602452,12.937 C36.0339373,9.70052941 38.1282705,10.3728824 38.1282705,10.3728824 C39.4917625,13.8164118 38.6339209,16.3593529 38.3769799,16.9922941 C39.979186,18.7405294 40.9469772,20.9734706 40.9469772,23.7040588 C40.9469772,33.3122941 35.1025999,35.427 29.5322146,36.0458235 C30.4300379,36.8181765 31.230259,38.3446471 31.230259,40.6775882 C31.230259,44.0211176 31.1990968,46.7187647 31.1990968,47.5387647 C31.1990968,48.2081765 31.6500664,48.9858235 32.918308,48.7417059 C42.844342,45.4281765 49.9998824,36.0593529 49.9998824,25.0128824 C49.9998824,11.1975882 38.8056068,-5.88235289e-05 24.9984124,-5.88235289e-05" id="Fill-1" fill="#FFFFFF" mask="url(#mask-nn9gz6q8d6-2)"></path>
                </g>
            </g>
        </g>
    </g>
</svg>