<?xml version="1.0" encoding="UTF-8"?>
<svg width="50px" height="50px" viewBox="0 0 50 50" version="1.1" xmlns="http://www.w3.org/2000/svg" xmlns:xlink="http://www.w3.org/1999/xlink">
    <title>medium_icon</title>
    <defs>
        <linearGradient x1="50%" y1="0%" x2="50%" y2="100%" id="linearGradient-ovca3sxyox-1">
            <stop stop-color="#FFFFFF" offset="0%"></stop>
            <stop stop-color="#E5CCF4" offset="100%"></stop>
        </linearGradient>
        <polygon id="path-ovca3sxyox-2" points="0 0.551724138 49.4411628 0.551724138 49.4411628 49.4252874 0 49.4252874"></polygon>
    </defs>
    <g id="Page-1" stroke="none" stroke-width="1" fill="none" fill-rule="evenodd">
        <g id="Avantis-Lead-Graphic" transform="translate(-320.000000, -868.000000)">
            <rect fill="#FFFFFF" x="0" y="0" width="1920" height="1324"></rect>
            <g id="1">
                <g id="BG" fill="url(#linearGradient-ovca3sxyox-1)" opacity="0.728306362">
                    <path d="M0,615 L1204,1311.5 C1221.66667,1318.5 1237.33333,1318.5 1251,1311.5 C1264.66667,1304.5 1487.66667,1175.66667 1920,925 L1920,0 L0,0 L0,615 Z"></path>
                </g>
                <g id="Social" transform="translate(160.000000, 868.000000)">
                    <g id="Medium" transform="translate(160.000000, 0.000000)">
                        <g id="Group-3" transform="translate(0.000000, 0.022989)">
                            <mask id="mask-ovca3sxyox-3" fill="white">
                                <use xlink:href="#path-ovca3sxyox-2"></use>
                            </mask>
                            <g id="Clip-2"></g>
                            <path d="M49.4411628,24.9884483 C49.4411628,38.4844253 38.3731395,49.4258046 24.7202326,49.4258046 C11.0673256,49.4258046 -0.00011627907,38.4844253 -0.00011627907,24.9884483 C-0.00011627907,11.4924713 11.0673256,0.551666667 24.7202326,0.551666667 C38.3731395,0.551666667 49.4411628,11.4924713 49.4411628,24.9884483" id="Fill-1" fill="#000000" mask="url(#mask-ovca3sxyox-3)"></path>
                        </g>
                        <path d="M26.7094186,25.0412069 C26.7094186,29.8756897 22.7727907,33.7940805 17.9146512,33.7940805 C13.0582558,33.7940805 9.11988372,29.8756897 9.11988372,25.0412069 C9.11988372,20.2067241 13.0582558,16.2883333 17.9146512,16.2883333 C22.7727907,16.2883333 26.7094186,20.2067241 26.7094186,25.0412069" id="Fill-4" fill="#FFFFFF"></path>
                        <path d="M36.3569186,25.0412069 C36.3569186,29.5917816 34.388314,33.2808621 31.960407,33.2808621 C29.5313372,33.2808621 27.5627326,29.5917816 27.5627326,25.0412069 C27.5627326,20.4906322 29.5313372,16.8015517 31.960407,16.8015517 C34.388314,16.8015517 36.3569186,20.4906322 36.3569186,25.0412069" id="Fill-6" fill="#FFFFFF"></path>
                        <path d="M40.3034884,25.0412069 C40.3034884,29.1182184 39.6116279,32.4233908 38.7569767,32.4233908 C37.902907,32.4233908 37.2104651,29.1182184 37.2104651,25.0412069 C37.2104651,20.9641954 37.902907,17.659023 38.7569767,17.659023 C39.6116279,17.659023 40.3034884,20.9641954 40.3034884,25.0412069" id="Fill-8" fill="#FFFFFF"></path>
                    </g>
                </g>
            </g>
        </g>
    </g>
</svg>