<?xml version="1.0" encoding="UTF-8"?>
<svg width="50px" height="50px" viewBox="0 0 50 50" version="1.1" xmlns="http://www.w3.org/2000/svg" xmlns:xlink="http://www.w3.org/1999/xlink">
    <title>twitter_icon</title>
    <defs>
        <polygon id="path-_pvyy5vp9t-1" points="0 0.551724138 49.4418023 0.551724138 49.4418023 49.4252874 0 49.4252874"></polygon>
    </defs>
    <g id="Page-1" stroke="none" stroke-width="1" fill="none" fill-rule="evenodd">
        <g id="5" transform="translate(-620.000000, -542.000000)">
            <g id="Twitter" transform="translate(620.000000, 542.000000)">
                <g id="Group-3" transform="translate(0.000000, 0.022989)">
                    <mask id="mask-_pvyy5vp9t-2" fill="white">
                        <use xlink:href="#path-_pvyy5vp9t-1"></use>
                    </mask>
                    <g id="Clip-2"></g>
                    <path d="M49.4418023,24.9884483 C49.4418023,38.4844253 38.3737791,49.4258046 24.7208721,49.4258046 C11.0679651,49.4258046 -5.81395349e-05,38.4844253 -5.81395349e-05,24.9884483 C-5.81395349e-05,11.4924713 11.0679651,0.551666667 24.7208721,0.551666667 C38.3737791,0.551666667 49.4418023,11.4924713 49.4418023,24.9884483" id="Fill-1" fill="#1D9BF0" mask="url(#mask-_pvyy5vp9t-2)"></path>
                </g>
                <path d="M20.1977326,37.9009195 C31.1593605,37.9009195 37.1535465,28.923908 37.1535465,21.14 C37.1535465,20.8848276 37.148314,20.6308046 37.136686,20.3785057 C38.3000581,19.5468966 39.311686,18.5095402 40.1093605,17.3285057 C39.0419186,17.7974713 37.8936628,18.1129885 36.6872674,18.2555172 C37.9180814,17.5262069 38.8628488,16.3727586 39.3076163,14.9968966 C38.1564535,15.6716092 36.8808721,16.1624138 35.523314,16.4267816 C34.4361047,15.281954 32.8872674,14.5652874 31.1738953,14.5652874 C27.8826163,14.5652874 25.2134302,17.2037931 25.2134302,20.456092 C25.2134302,20.9187356 25.2657558,21.3681609 25.3686628,21.7991954 C20.4151744,21.5532184 16.023314,19.2089655 13.0849419,15.6445977 C12.5721512,16.5152874 12.2773837,17.5262069 12.2773837,18.6055172 C12.2773837,20.6491954 13.3297093,22.4537931 14.9291279,23.5089655 C13.9518023,23.4790805 13.0331977,23.2135632 12.2302907,22.7721839 C12.2291279,22.7963218 12.2291279,22.8210345 12.2291279,22.8468966 C12.2291279,25.7003448 14.2831977,28.0825287 17.0105233,28.6221839 C16.5093605,28.7572414 15.9826163,28.8296552 15.4384302,28.8296552 C15.0547093,28.8296552 14.6820349,28.7917241 14.3186628,28.7233333 C15.0773837,31.0641379 17.2779651,32.7670115 19.8861047,32.8147126 C17.8459884,34.3951724 15.2762209,35.3365517 12.4843605,35.3365517 C12.0035465,35.3365517 11.5291279,35.3095402 11.0628488,35.2549425 C13.7000581,36.9256322 16.8320349,37.9009195 20.1977326,37.9009195" id="Fill-4" fill="#FFFFFF"></path>
            </g>
        </g>
    </g>
</svg>