<svg xmlns="http://www.w3.org/2000/svg" xmlns:xlink="http://www.w3.org/1999/xlink" viewBox="0 0 359.54 397.56"><defs><linearGradient id="af2dc066-e977-4e4b-9ccc-878268957f46" x1="105.79" y1="352.16" x2="131" y2="289.76" gradientUnits="userSpaceOnUse"><stop offset="0" stop-color="#ffd9e1" stop-opacity="0.25"/><stop offset="0.04" stop-color="#fdd9e2" stop-opacity="0.23"/><stop offset="0.44" stop-color="#e9d7e8" stop-opacity="0.11"/><stop offset="0.77" stop-color="#ddd6ec" stop-opacity="0.03"/><stop offset="1" stop-color="#d9d6ed" stop-opacity="0"/></linearGradient><linearGradient id="ecf38632-9e50-41da-aa40-3cdd6f9f63f0" x1="105.79" y1="352.16" x2="131" y2="289.76" gradientUnits="userSpaceOnUse"><stop offset="0" stop-color="#fcff80"/><stop offset="0.52" stop-color="#eaf8c0"/><stop offset="1" stop-color="#daf1f7"/></linearGradient><linearGradient id="fb588060-5033-4384-9f89-26e77f311400" x1="83.65" y1="254.39" x2="158.14" y2="70.04" xlink:href="#af2dc066-e977-4e4b-9ccc-878268957f46"/><linearGradient id="fa852044-22fe-42df-8f4f-ed651850d1cd" x1="83.65" y1="254.39" x2="158.14" y2="70.04" gradientUnits="userSpaceOnUse"><stop offset="0" stop-color="#fcff80"/><stop offset="0.31" stop-color="#c0caa8"/><stop offset="0.61" stop-color="#8998ce"/><stop offset="1" stop-color="#0d173c" stop-opacity="0.8"/></linearGradient><linearGradient id="b4452da0-2498-404b-a142-dd50aa14f1fd" x1="13.75" y1="176.77" x2="232.42" y2="176.77" gradientUnits="userSpaceOnUse"><stop offset="0" stop-color="#739aef" stop-opacity="0.8"/><stop offset="0.5" stop-color="#8998ce" stop-opacity="0"/><stop offset="0.56" stop-color="#8898cf" stop-opacity="0.02"/><stop offset="0.63" stop-color="#8798d2" stop-opacity="0.09"/><stop offset="0.71" stop-color="#8498d6" stop-opacity="0.19"/><stop offset="0.8" stop-color="#8099dc" stop-opacity="0.34"/><stop offset="0.89" stop-color="#7a99e4" stop-opacity="0.53"/><stop offset="0.99" stop-color="#749aed" stop-opacity="0.76"/><stop offset="1" stop-color="#739aef" stop-opacity="0.8"/></linearGradient><linearGradient id="f0e27d9b-a30f-4475-a7e1-628de121b32a" x1="132.39" y1="120.51" x2="190.31" y2="120.51" gradientTransform="translate(6.78 -8.58) rotate(3.11)" gradientUnits="userSpaceOnUse"><stop offset="0" stop-color="#e3bbff"/><stop offset="0.09" stop-color="#e3bbff" stop-opacity="0.98"/><stop offset="0.22" stop-color="#e3bcfe" stop-opacity="0.91"/><stop offset="0.36" stop-color="#e3befd" stop-opacity="0.81"/><stop offset="0.51" stop-color="#e4c1fb" stop-opacity="0.66"/><stop offset="0.68" stop-color="#e4c4f9" stop-opacity="0.47"/><stop offset="0.84" stop-color="#e5c8f7" stop-opacity="0.24"/><stop offset="1" stop-color="#e5ccf4" stop-opacity="0"/></linearGradient></defs><g id="b06599ce-e31b-4887-8780-b73110f7b674" data-name="Layer 2"><g id="bbb107b0-41ab-4690-8822-a6002b8b0c3b" data-name="Layer 1"><polygon points="222.5 326.73 230.94 323.38 22.73 241 14.29 244.35 222.5 326.73" style="fill:#eee2f7"/><polygon points="222.5 397.56 230.94 394.22 230.94 323.38 222.5 326.73 222.5 397.56" style="fill:#eee2f7"/><polygon points="14.29 315.19 14.29 244.35 222.5 326.73 222.5 397.56 14.29 315.19" style="fill:url(#af2dc066-e977-4e4b-9ccc-878268957f46)"/><path d="M15,245.34l206.86,81.85v69.38L15,314.73V245.34m-.68-1v70.84L222.5,397.56V326.73L14.29,244.35Z" style="fill:url(#ecf38632-9e50-41da-aa40-3cdd6f9f63f0)"/><path d="M31.66,290.25a15.59,15.59,0,0,1-3-2.82l1.09-2A15.22,15.22,0,0,0,32.44,288a14.59,14.59,0,0,0,3.1,1.71,5,5,0,0,0,2.86.48,1.34,1.34,0,0,0,1-1.47,2.72,2.72,0,0,0-.93-1.95,19,19,0,0,0-3.09-2.27,30,30,0,0,1-3.63-2.59,9.28,9.28,0,0,1-2.1-2.5,5.91,5.91,0,0,1-.71-2.86,3.57,3.57,0,0,1,.86-2.54,3.44,3.44,0,0,1,2.44-1,8.69,8.69,0,0,1,3.62.72,16,16,0,0,1,3.59,2,13.87,13.87,0,0,1,2.79,2.71l-1.09,2a13.17,13.17,0,0,0-5.29-4.06,4.22,4.22,0,0,0-2.72-.37,1.47,1.47,0,0,0-1,1.59,2.84,2.84,0,0,0,.89,2,16.42,16.42,0,0,0,3,2.27,32.18,32.18,0,0,1,3.67,2.62A9.78,9.78,0,0,1,41.88,287a5.47,5.47,0,0,1,.75,2.8,3.5,3.5,0,0,1-.85,2.53,3.28,3.28,0,0,1-2.46.92,10.21,10.21,0,0,1-3.8-.85A18.35,18.35,0,0,1,31.66,290.25Z" style="fill:#e5ccf4"/><path d="M52.75,296.69l-.15,2.37c-.52-.15-1-.31-1.41-.48a8.45,8.45,0,0,1-3.87-2.79,7,7,0,0,1-1.25-4.18v-5.55l-2.39-.95v-2.45l2.39.95v-3.8l3.19,1.26v3.81l3.29,1.31v2.45l-3.29-1.31v5.5a3.42,3.42,0,0,0,2.32,3.47A10,10,0,0,0,52.75,296.69Z" style="fill:#e5ccf4"/><path d="M57,300.09a9.71,9.71,0,0,1-3-7,5.72,5.72,0,0,1,.79-3.19A3.2,3.2,0,0,1,57,288.43a6.47,6.47,0,0,1,3.36.53,10.28,10.28,0,0,1,3.36,2.15,9.83,9.83,0,0,1,2.23,3.19,9.61,9.61,0,0,1,.78,3.83,5.82,5.82,0,0,1-.78,3.21,3.19,3.19,0,0,1-2.23,1.44,6.47,6.47,0,0,1-3.36-.54A10.34,10.34,0,0,1,57,300.09Zm5.71-.48a3.59,3.59,0,0,0,.82-2.76,6.5,6.5,0,0,0-.82-3.39,4.71,4.71,0,0,0-2.35-2,2.22,2.22,0,0,0-2.37.12,3.57,3.57,0,0,0-.83,2.74,6.49,6.49,0,0,0,.82,3.4,4.68,4.68,0,0,0,2.35,2A2.24,2.24,0,0,0,62.66,299.61Z" style="fill:#e5ccf4"/><path d="M71.61,306a9.58,9.58,0,0,1-3-7,5.63,5.63,0,0,1,.81-3.19,3.25,3.25,0,0,1,2.29-1.45,6.43,6.43,0,0,1,3.44.53,11.72,11.72,0,0,1,2.61,1.46,10.16,10.16,0,0,1,2,2l-.93,1.94a10.59,10.59,0,0,0-1.68-1.67,7.24,7.24,0,0,0-1.76-1,2.6,2.6,0,0,0-2.59,0,3.2,3.2,0,0,0-.92,2.68,6.13,6.13,0,0,0,.92,3.38,5.45,5.45,0,0,0,2.59,2.1,5,5,0,0,0,1.76.36,4,4,0,0,0,1.68-.33l.93,2.65a4,4,0,0,1-2.11.35,8.5,8.5,0,0,1-2.67-.64A10.4,10.4,0,0,1,71.61,306Z" style="fill:#e5ccf4"/><path d="M94.46,315.68l-4-1.6-5.41-8v5.84l-3.21-1.29V292.18l3.21,1.28v11.26l5.07-3.56L94,302.72l-5.67,3.87Z" style="fill:#e5ccf4"/><path d="M102.93,319.06v-18.5l12.22,4.85v2.68l-9-3.56v5.09l8.45,3.36v2.66l-8.45-3.37v5.41l9,3.58v2.68Z" style="fill:#e5ccf4"/><path d="M125,321.24l5.36,8.77-3.85-1.54-3.38-5.63-3.35,3-3.84-1.54,5.32-4.5-5-8.24,3.87,1.54,3,5.13,3-2.71L130,317Z" style="fill:#e5ccf4"/><path d="M133.8,330.79a9.77,9.77,0,0,1-2.25-3.22,9.56,9.56,0,0,1-.78-3.82,5.62,5.62,0,0,1,.82-3.21,3.34,3.34,0,0,1,2.33-1.46,6.67,6.67,0,0,1,3.5.55,12.31,12.31,0,0,1,2.65,1.48,9.91,9.91,0,0,1,2.07,2l-.94,1.95a11.26,11.26,0,0,0-1.71-1.68,7.31,7.31,0,0,0-1.79-1.06,2.65,2.65,0,0,0-2.63,0,3.19,3.19,0,0,0-.94,2.7,6.09,6.09,0,0,0,.94,3.42,5.44,5.44,0,0,0,2.63,2.12,5.21,5.21,0,0,0,1.79.37,4.3,4.3,0,0,0,1.71-.32l.94,2.67a4,4,0,0,1-2.14.34,8.54,8.54,0,0,1-2.71-.65A10.9,10.9,0,0,1,133.8,330.79Z" style="fill:#e5ccf4"/><path d="M155.07,328a8.13,8.13,0,0,1,1.13,4.44v7.93L152.92,339v-7.74a4.61,4.61,0,0,0-.56-2.42,3.55,3.55,0,0,0-1.77-1.39,2.37,2.37,0,0,0-2.27,0,2.29,2.29,0,0,0-.84,2.06v7.31l-3.27-1.3V316.94l3.27,1.3v7.5a2.46,2.46,0,0,1,1.73-.88,5.29,5.29,0,0,1,2.43.42A7,7,0,0,1,155.07,328Z" style="fill:#e5ccf4"/><path d="M169.07,333.54a7.69,7.69,0,0,1,1.31,4.6V346l-3.13-1.25v-2a1.94,1.94,0,0,1-1.4,1.05,4,4,0,0,1-2.22-.3,8,8,0,0,1-2.34-1.47,7.55,7.55,0,0,1-1.66-2.11,5,5,0,0,1-.6-2.31,2.27,2.27,0,0,1,.72-1.95,3.12,3.12,0,0,1,2.35-.26,24.44,24.44,0,0,1,4.49,1.42l.66.26v-.61a3.7,3.7,0,0,0-.56-2.13,4.08,4.08,0,0,0-1.88-1.33,7.16,7.16,0,0,0-2.14-.49,8.07,8.07,0,0,0-2.2.12l-.91-2.64a7.71,7.71,0,0,1,2.6-.11,11,11,0,0,1,2.88.7A8.77,8.77,0,0,1,169.07,333.54Zm-2.65,7.83a2.19,2.19,0,0,0,.83-2v-.56l-.47-.19a21,21,0,0,0-2.73-.93,2.15,2.15,0,0,0-1.4,0,1,1,0,0,0-.42.92,2.66,2.66,0,0,0,.58,1.62,3.47,3.47,0,0,0,1.47,1.13A2.22,2.22,0,0,0,166.42,341.37Z" style="fill:#e5ccf4"/><path d="M184.67,339.75a8.09,8.09,0,0,1,1.14,4.46v8l-3.3-1.32v-7.77a4.55,4.55,0,0,0-.57-2.43,3.55,3.55,0,0,0-1.78-1.4,2.42,2.42,0,0,0-2.28,0,2.31,2.31,0,0,0-.86,2.07v7.34l-3.29-1.31v-13l3.21,1.28v1.94a2.58,2.58,0,0,1,1.77-1,5.06,5.06,0,0,1,2.51.42A6.94,6.94,0,0,1,184.67,339.75Z" style="fill:#e5ccf4"/><path d="M201.78,345.54v11.81c0,2-.56,3.36-1.68,3.95s-2.78.46-5-.42a16.8,16.8,0,0,1-3.26-1.74,16,16,0,0,1-2.73-2.32l.93-2a15,15,0,0,0,5,3.45c2.29.92,3.44.24,3.44-2v-1.71a2.32,2.32,0,0,1-1.69,1,5,5,0,0,1-2.55-.41,8.78,8.78,0,0,1-3-2,9.49,9.49,0,0,1-2.05-3.08,9.22,9.22,0,0,1-.74-3.67,5.86,5.86,0,0,1,.72-3.09,3.1,3.1,0,0,1,2-1.47,5.2,5.2,0,0,1,3,.39,8.29,8.29,0,0,1,2.55,1.61,7.18,7.18,0,0,1,1.69,2.36v-2Zm-4.18,7.35a3,3,0,0,0,.89-2.49,5.77,5.77,0,0,0-.89-3.22,5.1,5.1,0,0,0-2.47-2,2.47,2.47,0,0,0-2.47.06,3,3,0,0,0-.9,2.51,5.79,5.79,0,0,0,.9,3.19,5.14,5.14,0,0,0,2.47,2A2.44,2.44,0,0,0,197.6,352.89Z" style="fill:#e5ccf4"/><path d="M216.62,358.56,207.76,355a5.54,5.54,0,0,0,3.75,5.07,5.37,5.37,0,0,0,3.94.19l1,2.67a5.13,5.13,0,0,1-2.28.29,9.3,9.3,0,0,1-2.76-.65,11.11,11.11,0,0,1-5-3.82,9.4,9.4,0,0,1-1.85-5.69,5.76,5.76,0,0,1,.8-3.22,3.3,3.3,0,0,1,2.24-1.5,5.9,5.9,0,0,1,3.28.46,8.91,8.91,0,0,1,4.25,3.41,9.54,9.54,0,0,1,1.56,5.39Zm-7.87-7.37a2.68,2.68,0,0,0-1,2.05l6,2.4a5.26,5.26,0,0,0-.8-2.78,4.31,4.31,0,0,0-2.08-1.67A2.28,2.28,0,0,0,208.75,351.19Z" style="fill:#e5ccf4"/><polygon points="241.79 103.83 254.44 98.81 12.65 3.69 0 8.71 241.79 103.83" style="fill:#382c73"/><polygon points="241.79 315.71 254.44 310.69 254.44 98.81 241.79 103.83 241.79 315.71" style="fill:#382c73"/><polygon points="0 220.59 0 8.71 241.79 103.83 241.79 315.71 0 220.59" style="fill:url(#fb588060-5033-4384-9f89-26e77f311400)"/><path d="M1,10.2l239.77,94.32V314.23L1,219.9V10.2M0,8.71V220.59l241.79,95.12V103.83L0,8.71Z" style="fill:url(#fa852044-22fe-42df-8f4f-ed651850d1cd)"/><path d="M232.07,216.19c4.62-16.54-37.22-46.77-97-70.68S20,115.81,13.75,131.36l1.84,20.56c6.23-15.56,59.73-8.78,119.5,15.14,51.14,20.46,90.3,46.84,96.64,63.78Z" style="fill:url(#b4452da0-2498-404b-a142-dd50aa14f1fd)"/><ellipse cx="131.09" cy="156.16" rx="61.63" ry="79.07" style="fill:#e9f3f4"/><path d="M13.53,132.44v20.73a3,3,0,0,0,1.88,2.76l213,84.48a3,3,0,0,0,4.06-2.76v-20a3,3,0,0,0-1.87-2.76l-213-85.16A3,3,0,0,0,13.53,132.44Z" style="fill:#e5ccf4"/><path d="M94.47,166.59l2.75,1.11v15.67L95,182.5l-8.64-14.42v11L83.63,178V162.21l2.2.89,8.64,14.42Z" style="fill:#f6f0fc"/><path d="M113.84,174.41l-6.41,5.82v7.18l-2.9-1.15v-7.19l-6.44-11,3.28,1.33,4.6,8,4.6-4.27Z" style="fill:#f6f0fc"/><path d="M116.11,190.56a13.73,13.73,0,0,1-2.68-2.42l1-1.69a14.07,14.07,0,0,0,2.4,2.21,12.93,12.93,0,0,0,2.72,1.47,4.42,4.42,0,0,0,2.49.43,1.1,1.1,0,0,0,.88-1.22,2.31,2.31,0,0,0-.81-1.66,17.4,17.4,0,0,0-2.69-2,25.3,25.3,0,0,1-3.18-2.24,7.85,7.85,0,0,1-1.85-2.15,4.84,4.84,0,0,1-.63-2.43,2.94,2.94,0,0,1,.76-2.14,3,3,0,0,1,2.14-.82,7.69,7.69,0,0,1,3.18.68,14.19,14.19,0,0,1,3.12,1.75,11.8,11.8,0,0,1,2.43,2.33l-.95,1.68a11.74,11.74,0,0,0-4.6-3.5,3.82,3.82,0,0,0-2.39-.36,1.21,1.21,0,0,0-.88,1.33,2.41,2.41,0,0,0,.78,1.7,15.39,15.39,0,0,0,2.64,2,27,27,0,0,1,3.2,2.26A8.27,8.27,0,0,1,125,187.9a4.56,4.56,0,0,1,.65,2.36,2.92,2.92,0,0,1-.74,2.13,2.87,2.87,0,0,1-2.14.75,9.25,9.25,0,0,1-3.31-.75A16.47,16.47,0,0,1,116.11,190.56Z" style="fill:#f6f0fc"/><path d="M128.3,195.68V180.26l10.33,4.17v2.22l-7.56-3.05v4.24l7.12,2.85v2.2l-7.12-2.84v4.5l7.56,3v2.22Z" style="fill:#f6f0fc"/><path d="M135.85,83.84c30.28,1.64,53.12,34.48,51,73.33" style="fill:none;stroke-linecap:round;stroke-miterlimit:10;stroke-width:3px;stroke:url(#f0e27d9b-a30f-4475-a7e1-628de121b32a)"/><path d="M309.17,23.24,257,2.54C236.29-5.67,211.8,6.46,211.8,32.47l7.73,60.58v11.23c0,3.74,3.44,7.21,5.79,5.82l12.29-7.24a6.75,6.75,0,0,1,6-.23l65.15,47.59c27.86,11.06,50.57-8.29,50.73-43.3h0C359.69,71.83,337.14,34.34,309.17,23.24Z" style="fill:#5d7e87"/><path d="M299.7,27.47,247.5,6.77C226.82-1.43,210.06,13,210.06,39v91.19c0,3.75,3.44,7.21,5.79,5.83l12.29-7.25a6.75,6.75,0,0,1,6.05-.23l65.15,25.87c27.86,11.06,50.57-8.29,50.73-43.3h0C350.22,76.06,327.67,38.57,299.7,27.47Z" style="fill:#382c73"/><polyline points="255.34 79.59 267.91 100.61 304.81 73.31" style="fill:none;stroke:#37dd96;stroke-linecap:round;stroke-linejoin:round;stroke-width:10.5px"/></g></g></svg>